<mxfile host="app.diagrams.net" modified="2020-11-18T11:54:48.650Z" agent="5.0 (Windows NT 10.0; Win64; x64) AppleWebKit/537.36 (KHTML, like Gecko) Chrome/85.0.4183.102 Safari/537.36" etag="O3rI6s4eL9JSPHoeuNwj" version="13.9.9" type="github">
  <diagram id="GQ2VUiUeexWYuhDypTk4" name="Page-1">
    <mxGraphModel dx="1422" dy="1931" grid="1" gridSize="10" guides="1" tooltips="1" connect="1" arrows="1" fold="1" page="1" pageScale="1" pageWidth="827" pageHeight="1169" math="0" shadow="0">
      <root>
        <mxCell id="0" />
        <mxCell id="1" parent="0" />
        <mxCell id="yPGQf7f-c2nLfvSAJnxe-19" value="清洗脚本" style="swimlane;html=1;childLayout=stackLayout;resizeParent=1;resizeParentMax=0;startSize=20;" vertex="1" parent="1">
          <mxGeometry x="300" y="-50" width="540" height="1810" as="geometry" />
        </mxCell>
        <mxCell id="yPGQf7f-c2nLfvSAJnxe-20" value="GenerateInternetCelebrityETL.php" style="swimlane;html=1;startSize=20;" vertex="1" parent="yPGQf7f-c2nLfvSAJnxe-19">
          <mxGeometry y="20" width="270" height="1790" as="geometry" />
        </mxCell>
        <mxCell id="yPGQf7f-c2nLfvSAJnxe-33" style="edgeStyle=orthogonalEdgeStyle;rounded=0;orthogonalLoop=1;jettySize=auto;html=1;entryX=0.5;entryY=0;entryDx=0;entryDy=0;" edge="1" parent="yPGQf7f-c2nLfvSAJnxe-20" source="yPGQf7f-c2nLfvSAJnxe-9" target="yPGQf7f-c2nLfvSAJnxe-32">
          <mxGeometry relative="1" as="geometry" />
        </mxCell>
        <mxCell id="yPGQf7f-c2nLfvSAJnxe-9" value="获取合作单的adlink和coupon订单详情" style="rounded=1;whiteSpace=wrap;html=1;absoluteArcSize=1;arcSize=14;strokeWidth=2;" vertex="1" parent="yPGQf7f-c2nLfvSAJnxe-20">
          <mxGeometry x="82" y="650" width="100" height="50" as="geometry" />
        </mxCell>
        <mxCell id="yPGQf7f-c2nLfvSAJnxe-25" style="edgeStyle=orthogonalEdgeStyle;rounded=0;orthogonalLoop=1;jettySize=auto;html=1;entryX=0.5;entryY=0;entryDx=0;entryDy=0;" edge="1" parent="yPGQf7f-c2nLfvSAJnxe-20" source="yPGQf7f-c2nLfvSAJnxe-6" target="yPGQf7f-c2nLfvSAJnxe-17">
          <mxGeometry relative="1" as="geometry" />
        </mxCell>
        <mxCell id="yPGQf7f-c2nLfvSAJnxe-6" value="关联合作单和Adlink订单" style="rounded=1;whiteSpace=wrap;html=1;absoluteArcSize=1;arcSize=14;strokeWidth=2;" vertex="1" parent="yPGQf7f-c2nLfvSAJnxe-20">
          <mxGeometry x="82" y="460" width="100" height="50" as="geometry" />
        </mxCell>
        <mxCell id="yPGQf7f-c2nLfvSAJnxe-14" value="coupon订单数据（mms_coupon_order_etl）" style="shape=parallelogram;html=1;strokeWidth=2;perimeter=parallelogramPerimeter;whiteSpace=wrap;rounded=1;arcSize=12;size=0.23;" vertex="1" parent="yPGQf7f-c2nLfvSAJnxe-20">
          <mxGeometry x="82" y="360" width="100" height="60" as="geometry" />
        </mxCell>
        <mxCell id="yPGQf7f-c2nLfvSAJnxe-29" style="edgeStyle=orthogonalEdgeStyle;rounded=0;orthogonalLoop=1;jettySize=auto;html=1;entryX=0.5;entryY=0;entryDx=0;entryDy=0;" edge="1" parent="yPGQf7f-c2nLfvSAJnxe-20" source="yPGQf7f-c2nLfvSAJnxe-4" target="yPGQf7f-c2nLfvSAJnxe-14">
          <mxGeometry relative="1" as="geometry" />
        </mxCell>
        <mxCell id="yPGQf7f-c2nLfvSAJnxe-4" value="关联合作单和coupon订单" style="rounded=1;whiteSpace=wrap;html=1;absoluteArcSize=1;arcSize=14;strokeWidth=2;" vertex="1" parent="yPGQf7f-c2nLfvSAJnxe-20">
          <mxGeometry x="82" y="270" width="100" height="50" as="geometry" />
        </mxCell>
        <mxCell id="yPGQf7f-c2nLfvSAJnxe-30" style="edgeStyle=orthogonalEdgeStyle;rounded=0;orthogonalLoop=1;jettySize=auto;html=1;entryX=0.5;entryY=0;entryDx=0;entryDy=0;" edge="1" parent="yPGQf7f-c2nLfvSAJnxe-20" source="yPGQf7f-c2nLfvSAJnxe-17" target="yPGQf7f-c2nLfvSAJnxe-9">
          <mxGeometry relative="1" as="geometry" />
        </mxCell>
        <mxCell id="yPGQf7f-c2nLfvSAJnxe-17" value="adlink订单数据&lt;br&gt;（mms_adlink_order_etl）" style="shape=parallelogram;html=1;strokeWidth=2;perimeter=parallelogramPerimeter;whiteSpace=wrap;rounded=1;arcSize=12;size=0.23;" vertex="1" parent="yPGQf7f-c2nLfvSAJnxe-20">
          <mxGeometry x="82" y="550" width="100" height="60" as="geometry" />
        </mxCell>
        <mxCell id="yPGQf7f-c2nLfvSAJnxe-28" style="edgeStyle=orthogonalEdgeStyle;rounded=0;orthogonalLoop=1;jettySize=auto;html=1;entryX=0.5;entryY=0;entryDx=0;entryDy=0;" edge="1" parent="yPGQf7f-c2nLfvSAJnxe-20" source="yPGQf7f-c2nLfvSAJnxe-11" target="yPGQf7f-c2nLfvSAJnxe-4">
          <mxGeometry relative="1" as="geometry" />
        </mxCell>
        <mxCell id="yPGQf7f-c2nLfvSAJnxe-11" value="清空原订单清洗结果表" style="rounded=1;whiteSpace=wrap;html=1;absoluteArcSize=1;arcSize=14;strokeWidth=2;" vertex="1" parent="yPGQf7f-c2nLfvSAJnxe-20">
          <mxGeometry x="82" y="170" width="100" height="50" as="geometry" />
        </mxCell>
        <mxCell id="yPGQf7f-c2nLfvSAJnxe-2" value="开始" style="strokeWidth=2;html=1;shape=mxgraph.flowchart.start_2;whiteSpace=wrap;" vertex="1" parent="yPGQf7f-c2nLfvSAJnxe-20">
          <mxGeometry x="100" y="60" width="64" height="64" as="geometry" />
        </mxCell>
        <mxCell id="yPGQf7f-c2nLfvSAJnxe-26" style="edgeStyle=orthogonalEdgeStyle;rounded=0;orthogonalLoop=1;jettySize=auto;html=1;entryX=0.5;entryY=0;entryDx=0;entryDy=0;" edge="1" parent="yPGQf7f-c2nLfvSAJnxe-20" source="yPGQf7f-c2nLfvSAJnxe-2" target="yPGQf7f-c2nLfvSAJnxe-11">
          <mxGeometry relative="1" as="geometry" />
        </mxCell>
        <mxCell id="yPGQf7f-c2nLfvSAJnxe-24" style="edgeStyle=orthogonalEdgeStyle;rounded=0;orthogonalLoop=1;jettySize=auto;html=1;entryX=0.5;entryY=0;entryDx=0;entryDy=0;" edge="1" parent="yPGQf7f-c2nLfvSAJnxe-20" source="yPGQf7f-c2nLfvSAJnxe-14" target="yPGQf7f-c2nLfvSAJnxe-6">
          <mxGeometry relative="1" as="geometry">
            <mxPoint x="132" y="440" as="targetPoint" />
          </mxGeometry>
        </mxCell>
        <mxCell id="yPGQf7f-c2nLfvSAJnxe-32" value="coupon和adlink订单详细信息（mms_order_etl）" style="shape=parallelogram;html=1;strokeWidth=2;perimeter=parallelogramPerimeter;whiteSpace=wrap;rounded=1;arcSize=12;size=0.23;" vertex="1" parent="yPGQf7f-c2nLfvSAJnxe-20">
          <mxGeometry x="82" y="740" width="100" height="60" as="geometry" />
        </mxCell>
        <mxCell id="yPGQf7f-c2nLfvSAJnxe-35" value="计算合作单有效订单数据，订单额" style="rounded=1;whiteSpace=wrap;html=1;absoluteArcSize=1;arcSize=14;strokeWidth=2;" vertex="1" parent="yPGQf7f-c2nLfvSAJnxe-20">
          <mxGeometry x="82" y="850" width="100" height="50" as="geometry" />
        </mxCell>
        <mxCell id="yPGQf7f-c2nLfvSAJnxe-41" style="edgeStyle=orthogonalEdgeStyle;rounded=0;orthogonalLoop=1;jettySize=auto;html=1;entryX=0.5;entryY=0;entryDx=0;entryDy=0;" edge="1" parent="yPGQf7f-c2nLfvSAJnxe-20" target="yPGQf7f-c2nLfvSAJnxe-40">
          <mxGeometry relative="1" as="geometry">
            <mxPoint x="132" y="900" as="sourcePoint" />
          </mxGeometry>
        </mxCell>
        <mxCell id="yPGQf7f-c2nLfvSAJnxe-43" style="edgeStyle=orthogonalEdgeStyle;rounded=0;orthogonalLoop=1;jettySize=auto;html=1;entryX=0.5;entryY=0;entryDx=0;entryDy=0;" edge="1" parent="yPGQf7f-c2nLfvSAJnxe-20" source="yPGQf7f-c2nLfvSAJnxe-40" target="yPGQf7f-c2nLfvSAJnxe-42">
          <mxGeometry relative="1" as="geometry" />
        </mxCell>
        <mxCell id="yPGQf7f-c2nLfvSAJnxe-40" value="计算合作单佣金" style="rounded=1;whiteSpace=wrap;html=1;absoluteArcSize=1;arcSize=14;strokeWidth=2;" vertex="1" parent="yPGQf7f-c2nLfvSAJnxe-20">
          <mxGeometry x="82" y="940" width="100" height="50" as="geometry" />
        </mxCell>
        <mxCell id="yPGQf7f-c2nLfvSAJnxe-42" value="合作单订单及佣金数据&lt;br&gt;（mms_cooperation_analyze_etl）" style="shape=parallelogram;html=1;strokeWidth=2;perimeter=parallelogramPerimeter;whiteSpace=wrap;rounded=1;arcSize=12;size=0.23;" vertex="1" parent="yPGQf7f-c2nLfvSAJnxe-20">
          <mxGeometry x="82" y="1029" width="100" height="60" as="geometry" />
        </mxCell>
        <mxCell id="yPGQf7f-c2nLfvSAJnxe-21" value="GenerateInternetCelebrityDateETL.php" style="swimlane;html=1;startSize=20;" vertex="1" parent="yPGQf7f-c2nLfvSAJnxe-19">
          <mxGeometry x="270" y="20" width="270" height="1790" as="geometry" />
        </mxCell>
        <mxCell id="yPGQf7f-c2nLfvSAJnxe-48" value="合作单日维度voucher花费置0" style="rounded=1;whiteSpace=wrap;html=1;absoluteArcSize=1;arcSize=14;strokeWidth=2;" vertex="1" parent="yPGQf7f-c2nLfvSAJnxe-21">
          <mxGeometry x="80" y="1140" width="100" height="50" as="geometry" />
        </mxCell>
        <mxCell id="yPGQf7f-c2nLfvSAJnxe-49" value="计算合作单日维度UV数据" style="rounded=1;whiteSpace=wrap;html=1;absoluteArcSize=1;arcSize=14;strokeWidth=2;" vertex="1" parent="yPGQf7f-c2nLfvSAJnxe-21">
          <mxGeometry x="80" y="1236" width="100" height="50" as="geometry" />
        </mxCell>
        <mxCell id="yPGQf7f-c2nLfvSAJnxe-58" style="edgeStyle=orthogonalEdgeStyle;rounded=0;orthogonalLoop=1;jettySize=auto;html=1;entryX=0.5;entryY=0;entryDx=0;entryDy=0;" edge="1" parent="yPGQf7f-c2nLfvSAJnxe-21" target="yPGQf7f-c2nLfvSAJnxe-56">
          <mxGeometry relative="1" as="geometry">
            <mxPoint x="130" y="1286" as="sourcePoint" />
          </mxGeometry>
        </mxCell>
        <mxCell id="yPGQf7f-c2nLfvSAJnxe-66" style="edgeStyle=orthogonalEdgeStyle;rounded=0;orthogonalLoop=1;jettySize=auto;html=1;entryX=0.5;entryY=0;entryDx=0;entryDy=0;" edge="1" parent="yPGQf7f-c2nLfvSAJnxe-21" source="yPGQf7f-c2nLfvSAJnxe-56">
          <mxGeometry relative="1" as="geometry">
            <mxPoint x="130" y="1416" as="targetPoint" />
          </mxGeometry>
        </mxCell>
        <mxCell id="yPGQf7f-c2nLfvSAJnxe-56" value="计算合作单日维度订单总额，总数（coupon订单，adlink订单，voucher订单）" style="rounded=1;whiteSpace=wrap;html=1;absoluteArcSize=1;arcSize=14;strokeWidth=2;" vertex="1" parent="yPGQf7f-c2nLfvSAJnxe-21">
          <mxGeometry x="80" y="1326" width="100" height="50" as="geometry" />
        </mxCell>
        <mxCell id="yPGQf7f-c2nLfvSAJnxe-103" style="edgeStyle=orthogonalEdgeStyle;rounded=0;orthogonalLoop=1;jettySize=auto;html=1;entryX=0.5;entryY=0;entryDx=0;entryDy=0;" edge="1" parent="yPGQf7f-c2nLfvSAJnxe-21" source="yPGQf7f-c2nLfvSAJnxe-68" target="yPGQf7f-c2nLfvSAJnxe-102">
          <mxGeometry relative="1" as="geometry" />
        </mxCell>
        <mxCell id="yPGQf7f-c2nLfvSAJnxe-68" value="计算合作单花费（佣金提现 + voucher订单成本）" style="rounded=1;whiteSpace=wrap;html=1;absoluteArcSize=1;arcSize=14;strokeWidth=2;" vertex="1" parent="yPGQf7f-c2nLfvSAJnxe-21">
          <mxGeometry x="80" y="1416" width="100" height="50" as="geometry" />
        </mxCell>
        <mxCell id="yPGQf7f-c2nLfvSAJnxe-71" style="edgeStyle=orthogonalEdgeStyle;rounded=0;orthogonalLoop=1;jettySize=auto;html=1;entryX=0.5;entryY=0;entryDx=0;entryDy=0;" edge="1" parent="yPGQf7f-c2nLfvSAJnxe-21" source="yPGQf7f-c2nLfvSAJnxe-69" target="yPGQf7f-c2nLfvSAJnxe-48">
          <mxGeometry relative="1" as="geometry" />
        </mxCell>
        <mxCell id="yPGQf7f-c2nLfvSAJnxe-69" value="设置脚本运行标识" style="rounded=1;whiteSpace=wrap;html=1;absoluteArcSize=1;arcSize=14;strokeWidth=2;" vertex="1" parent="yPGQf7f-c2nLfvSAJnxe-21">
          <mxGeometry x="80" y="1034" width="100" height="50" as="geometry" />
        </mxCell>
        <mxCell id="yPGQf7f-c2nLfvSAJnxe-78" style="edgeStyle=orthogonalEdgeStyle;rounded=0;orthogonalLoop=1;jettySize=auto;html=1;entryX=0.5;entryY=0;entryDx=0;entryDy=0;entryPerimeter=0;" edge="1" parent="yPGQf7f-c2nLfvSAJnxe-21" source="yPGQf7f-c2nLfvSAJnxe-73" target="yPGQf7f-c2nLfvSAJnxe-76">
          <mxGeometry relative="1" as="geometry" />
        </mxCell>
        <mxCell id="yPGQf7f-c2nLfvSAJnxe-73" value="清除脚本运行标识" style="rounded=1;whiteSpace=wrap;html=1;absoluteArcSize=1;arcSize=14;strokeWidth=2;" vertex="1" parent="yPGQf7f-c2nLfvSAJnxe-21">
          <mxGeometry x="80" y="1630" width="100" height="50" as="geometry" />
        </mxCell>
        <mxCell id="yPGQf7f-c2nLfvSAJnxe-76" value="结束" style="strokeWidth=2;html=1;shape=mxgraph.flowchart.terminator;whiteSpace=wrap;" vertex="1" parent="yPGQf7f-c2nLfvSAJnxe-21">
          <mxGeometry x="80" y="1730" width="100" height="40" as="geometry" />
        </mxCell>
        <mxCell id="yPGQf7f-c2nLfvSAJnxe-77" value="脚本正在运行时，不会显示网红信息列表页的销售汇总数据" style="strokeWidth=2;html=1;shape=mxgraph.flowchart.annotation_1;align=left;pointerEvents=1;" vertex="1" parent="yPGQf7f-c2nLfvSAJnxe-21">
          <mxGeometry x="210" y="1009" width="50" height="100" as="geometry" />
        </mxCell>
        <mxCell id="yPGQf7f-c2nLfvSAJnxe-104" style="edgeStyle=orthogonalEdgeStyle;rounded=0;orthogonalLoop=1;jettySize=auto;html=1;entryX=0.5;entryY=0;entryDx=0;entryDy=0;" edge="1" parent="yPGQf7f-c2nLfvSAJnxe-21" source="yPGQf7f-c2nLfvSAJnxe-102" target="yPGQf7f-c2nLfvSAJnxe-73">
          <mxGeometry relative="1" as="geometry" />
        </mxCell>
        <mxCell id="yPGQf7f-c2nLfvSAJnxe-102" value="合作单日维度的花费，收入以及流量数据&lt;br&gt;mms_cooperation_date_etl" style="shape=parallelogram;html=1;strokeWidth=2;perimeter=parallelogramPerimeter;whiteSpace=wrap;rounded=1;arcSize=12;size=0.23;" vertex="1" parent="yPGQf7f-c2nLfvSAJnxe-21">
          <mxGeometry x="80" y="1520" width="100" height="60" as="geometry" />
        </mxCell>
        <mxCell id="yPGQf7f-c2nLfvSAJnxe-70" style="edgeStyle=orthogonalEdgeStyle;rounded=0;orthogonalLoop=1;jettySize=auto;html=1;entryX=0;entryY=0.5;entryDx=0;entryDy=0;" edge="1" parent="yPGQf7f-c2nLfvSAJnxe-19" source="yPGQf7f-c2nLfvSAJnxe-42" target="yPGQf7f-c2nLfvSAJnxe-69">
          <mxGeometry relative="1" as="geometry" />
        </mxCell>
        <mxCell id="yPGQf7f-c2nLfvSAJnxe-37" style="edgeStyle=orthogonalEdgeStyle;rounded=0;orthogonalLoop=1;jettySize=auto;html=1;" edge="1" parent="1" source="yPGQf7f-c2nLfvSAJnxe-32">
          <mxGeometry relative="1" as="geometry">
            <mxPoint x="432" y="810" as="targetPoint" />
          </mxGeometry>
        </mxCell>
        <mxCell id="yPGQf7f-c2nLfvSAJnxe-51" style="edgeStyle=orthogonalEdgeStyle;rounded=0;orthogonalLoop=1;jettySize=auto;html=1;" edge="1" parent="1" source="yPGQf7f-c2nLfvSAJnxe-48">
          <mxGeometry relative="1" as="geometry">
            <mxPoint x="700" y="1196" as="targetPoint" />
          </mxGeometry>
        </mxCell>
      </root>
    </mxGraphModel>
  </diagram>
</mxfile>
